<svg width="98" height="88" viewBox="0 0 98 88" fill="none" xmlns="http://www.w3.org/2000/svg">
<path fill-rule="evenodd" clip-rule="evenodd" d="M31.5 17.5C31.5 12.8587 33.3437 8.40752 36.6256 5.12563C39.9075 1.84374 44.3587 0 49 0C53.6413 0 58.0925 1.84374 61.3744 5.12563C64.6563 8.40752 66.5 12.8587 66.5 17.5C66.5 22.1413 64.6563 26.5925 61.3744 29.8744C58.0925 33.1563 53.6413 35 49 35C44.3587 35 39.9075 33.1563 36.6256 29.8744C33.3437 26.5925 31.5 22.1413 31.5 17.5ZM66.5 31.5C66.5 27.787 67.975 24.226 70.6005 21.6005C73.226 18.975 76.787 17.5 80.5 17.5C84.213 17.5 87.774 18.975 90.3995 21.6005C93.025 24.226 94.5 27.787 94.5 31.5C94.5 35.213 93.025 38.774 90.3995 41.3995C87.774 44.025 84.213 45.5 80.5 45.5C76.787 45.5 73.226 44.025 70.6005 41.3995C67.975 38.774 66.5 35.213 66.5 31.5V31.5ZM3.5 31.5C3.5 27.787 4.975 24.226 7.60051 21.6005C10.226 18.975 13.787 17.5 17.5 17.5C21.213 17.5 24.774 18.975 27.3995 21.6005C30.025 24.226 31.5 27.787 31.5 31.5C31.5 35.213 30.025 38.774 27.3995 41.3995C24.774 44.025 21.213 45.5 17.5 45.5C13.787 45.5 10.226 44.025 7.60051 41.3995C4.975 38.774 3.5 35.213 3.5 31.5ZM22.4467 56.546C25.2931 52.0848 29.2184 48.4132 33.8596 45.8707C38.5008 43.3283 43.708 41.997 49 42C53.4325 41.996 57.8159 42.9281 61.8632 44.7354C65.9105 46.5427 69.5304 49.1845 72.4861 52.4877C75.4417 55.7909 77.6664 59.6812 79.0144 63.9037C80.3625 68.1262 80.8035 72.5859 80.3087 76.9907C80.2482 77.5379 80.0594 78.0631 79.7578 78.5237C79.4561 78.9843 79.0501 79.3672 78.5727 79.6413C69.5733 84.8051 59.3756 87.5151 49 87.5C38.6242 87.5164 28.4262 84.8063 19.4273 79.6413C18.9499 79.3672 18.5438 78.9843 18.2422 78.5237C17.9406 78.0631 17.7518 77.5379 17.6913 76.9907C16.9076 69.8349 18.5848 62.6256 22.4467 56.5507V56.546Z" fill="#901447"/>
<path d="M16.716 52.5187C12.1135 59.6231 9.96918 68.0415 10.612 76.482C7.8097 76.0571 5.05356 75.3697 2.38 74.4287L1.84333 74.242C1.36451 74.0721 0.945236 73.7669 0.636292 73.3636C0.327348 72.9602 0.141989 72.4759 0.102666 71.9693L0.0559991 71.4047C-0.132511 69.0618 0.15286 66.705 0.895084 64.4749C1.63731 62.2447 2.82118 60.187 4.37604 58.4244C5.93091 56.6617 7.82491 55.2304 9.94503 54.2157C12.0652 53.2011 14.3679 52.6239 16.716 52.5187ZM87.388 76.482C88.0308 68.0415 85.8865 59.6231 81.284 52.5187C83.6321 52.6239 85.9348 53.2011 88.055 54.2157C90.1751 55.2304 92.0691 56.6617 93.624 58.4244C95.1788 60.187 96.3627 62.2447 97.1049 64.4749C97.8471 66.705 98.1325 69.0618 97.944 71.4047L97.8973 71.9693C97.8572 72.4751 97.6714 72.9584 97.3625 73.3608C97.0536 73.7633 96.6348 74.0677 96.1567 74.2373L95.62 74.424C92.974 75.3573 90.2253 76.0527 87.388 76.482Z" fill="#901447"/>
</svg>
