<svg width="132" height="112" viewBox="0 0 132 112" fill="none" xmlns="http://www.w3.org/2000/svg">
<path fill-rule="evenodd" clip-rule="evenodd" d="M48.5 31.5C48.5 26.8587 50.3437 22.4075 53.6256 19.1256C56.9075 15.8437 61.3587 14 66 14C70.6413 14 75.0925 15.8437 78.3744 19.1256C81.6563 22.4075 83.5 26.8587 83.5 31.5C83.5 36.1413 81.6563 40.5925 78.3744 43.8744C75.0925 47.1563 70.6413 49 66 49C61.3587 49 56.9075 47.1563 53.6256 43.8744C50.3437 40.5925 48.5 36.1413 48.5 31.5ZM83.5 45.5C83.5 41.787 84.975 38.226 87.6005 35.6005C90.226 32.975 93.787 31.5 97.5 31.5C101.213 31.5 104.774 32.975 107.399 35.6005C110.025 38.226 111.5 41.787 111.5 45.5C111.5 49.213 110.025 52.774 107.399 55.3995C104.774 58.025 101.213 59.5 97.5 59.5C93.787 59.5 90.226 58.025 87.6005 55.3995C84.975 52.774 83.5 49.213 83.5 45.5ZM20.5 45.5C20.5 41.787 21.975 38.226 24.6005 35.6005C27.226 32.975 30.787 31.5 34.5 31.5C38.213 31.5 41.774 32.975 44.3995 35.6005C47.025 38.226 48.5 41.787 48.5 45.5C48.5 49.213 47.025 52.774 44.3995 55.3995C41.774 58.025 38.213 59.5 34.5 59.5C30.787 59.5 27.226 58.025 24.6005 55.3995C21.975 52.774 20.5 49.213 20.5 45.5ZM39.4467 70.546C42.2931 66.0848 46.2184 62.4132 50.8596 59.8707C55.5008 57.3283 60.708 55.997 66 56C70.4325 55.996 74.8159 56.9281 78.8632 58.7354C82.9105 60.5427 86.5304 63.1845 89.4861 66.4877C92.4417 69.7909 94.6664 73.6812 96.0144 77.9037C97.3625 82.1262 97.8035 86.5859 97.3087 90.9907C97.2482 91.5379 97.0594 92.0631 96.7578 92.5237C96.4561 92.9843 96.0501 93.3672 95.5727 93.6413C86.5733 98.8051 76.3756 101.515 66 101.5C55.6242 101.516 45.4262 98.8063 36.4273 93.6413C35.9499 93.3672 35.5438 92.9843 35.2422 92.5237C34.9406 92.0631 34.7518 91.5379 34.6913 90.9907C33.9076 83.8349 35.5848 76.6256 39.4467 70.5507V70.546Z" fill="#901447"/>
<path d="M33.716 66.5187C29.1135 73.6231 26.9692 82.0415 27.612 90.482C24.8097 90.0571 22.0536 89.3697 19.38 88.4287L18.8433 88.242C18.3645 88.0721 17.9452 87.7669 17.6363 87.3636C17.3274 86.9602 17.142 86.4759 17.1027 85.9693L17.056 85.4047C16.8675 83.0618 17.1529 80.705 17.8951 78.4749C18.6373 76.2447 19.8212 74.187 21.3761 72.4244C22.9309 70.6617 24.8249 69.2304 26.945 68.2157C29.0652 67.2011 31.368 66.6239 33.716 66.5187ZM104.388 90.482C105.031 82.0415 102.886 73.6231 98.284 66.5187C100.632 66.6239 102.935 67.2011 105.055 68.2157C107.175 69.2304 109.069 70.6617 110.624 72.4244C112.179 74.187 113.363 76.2447 114.105 78.4749C114.847 80.705 115.133 83.0618 114.944 85.4047L114.897 85.9693C114.857 86.4751 114.671 86.9584 114.363 87.3608C114.054 87.7633 113.635 88.0677 113.157 88.2373L112.62 88.424C109.974 89.3573 107.225 90.0527 104.388 90.482Z" fill="#901447"/>
<path d="M20.022 64.6968C14.4768 69.9805 11.0577 76.8402 10.2893 84.2233C7.69 83.3505 5.17766 82.26 2.78542 80.9661L2.30486 80.7083C1.87665 80.4753 1.52727 80.1368 1.29902 79.7336C1.07078 79.3304 0.973464 78.88 1.01887 78.4367L1.06679 77.9421C1.27047 75.891 1.92774 73.9136 2.99936 72.1278C4.07099 70.3421 5.53503 68.7847 7.3041 67.5485C9.07317 66.3123 11.111 65.4227 13.2961 64.9328C15.4811 64.4428 17.7686 64.3625 20.022 64.6968Z" fill="#901447"/>
<path d="M112 65.0245C117.545 70.3083 120.964 77.168 121.733 84.5511C124.332 83.6783 126.844 82.5877 129.237 81.2939L129.717 81.0361C130.145 80.8031 130.495 80.4645 130.723 80.0614C130.951 79.6582 131.049 79.2077 131.003 78.7645L130.955 78.2699C130.752 76.2187 130.094 74.2413 129.023 72.4556C127.951 70.6699 126.487 69.1124 124.718 67.8763C122.949 66.6401 120.911 65.7505 118.726 65.2605C116.541 64.7706 114.253 64.6903 112 65.0245Z" fill="#901447"/>
<circle cx="12" cy="52" r="6" fill="#901447"/>
<circle cx="121" cy="52" r="6" fill="#901447"/>
</svg>
