<svg width="64" height="88" viewBox="0 0 64 88" fill="none" xmlns="http://www.w3.org/2000/svg">
<path fill-rule="evenodd" clip-rule="evenodd" d="M14.5 17.5C14.5 12.8587 16.3437 8.40752 19.6256 5.12563C22.9075 1.84374 27.3587 0 32 0C36.6413 0 41.0925 1.84374 44.3744 5.12563C47.6562 8.40752 49.5 12.8587 49.5 17.5C49.5 22.1413 47.6562 26.5925 44.3744 29.8744C41.0925 33.1563 36.6413 35 32 35C27.3587 35 22.9075 33.1563 19.6256 29.8744C16.3437 26.5925 14.5 22.1413 14.5 17.5ZM5.44665 56.546C8.29309 52.0848 12.2184 48.4132 16.8596 45.8707C21.5007 43.3283 26.708 41.997 32 42C36.4325 41.996 40.8159 42.9281 44.8632 44.7354C48.9105 46.5427 52.5304 49.1845 55.486 52.4877C58.4417 55.7909 60.6664 59.6812 62.0144 63.9037C63.3624 68.1262 63.8035 72.5859 63.3087 76.9907C63.2482 77.5379 63.0594 78.0631 62.7578 78.5237C62.4561 78.9843 62.0501 79.3672 61.5727 79.6413C52.5733 84.8051 42.3756 87.5151 32 87.5C21.6242 87.5164 11.4262 84.8063 2.42732 79.6413C1.94987 79.3672 1.54383 78.9843 1.24219 78.5237C0.940548 78.0631 0.751813 77.5379 0.69132 76.9907C-0.0924231 69.8349 1.5848 62.6256 5.44665 56.5507V56.546Z" fill="#901447"/>
</svg>
